<svg width="70" height="71" viewBox="0 0 70 71" fill="none" xmlns="http://www.w3.org/2000/svg">
<g opacity="0.8" filter="url(#filter0_d_14001_2)">
<circle cx="34.7183" cy="32.1871" r="23.4515" fill="#333333"/>
</g>
<path d="M61.9515 33.5001C61.9515 46.4519 51.4519 56.9515 38.5 56.9515C25.5481 56.9515 15.0485 46.4519 15.0485 33.5001C15.0485 20.5482 25.5481 10.0486 38.5 10.0486C51.4519 10.0486 61.9515 20.5482 61.9515 33.5001Z" fill="#333333"/>
<g clip-path="url(#clip0_14001_2)">
<path d="M29.11 26.1529L35.7154 23.2134L42.7851 21.7001L50.3612 26.9863L42.7675 44.8714L26.0989 34.8864L29.11 26.1529Z" fill="#FDB300"/>
<path d="M31.0126 33.2864L42.7675 44.8714L26.0989 34.8864L31.0126 33.2864Z" fill="#EA6C00"/>
<path d="M45.4475 28.5862L42.7675 44.8714L50.3612 26.9862L45.4475 28.5862Z" fill="#EA6C00"/>
<path d="M31.0126 33.2864L45.4475 28.5862L42.7675 44.8714L31.0126 33.2864Z" fill="#FDAD00"/>
<path d="M35.7154 23.2134L29.11 26.1529L31.0126 33.2864L35.7154 23.2134Z" fill="#FDD231"/>
<path d="M35.7153 23.2135L42.7851 21.7001L45.4474 28.5863L35.7153 23.2135Z" fill="#FDD231"/>
<path d="M50.3612 26.9863L42.7851 21.7001L45.4475 28.5863L50.3612 26.9863Z" fill="#FDAD00"/>
<path d="M26.0989 34.8864L29.1099 26.1529L31.0126 33.2865L26.0989 34.8864Z" fill="#FDAD00"/>
<path d="M35.7154 23.2134L31.0126 33.2864L45.4475 28.5862L35.7154 23.2134Z" fill="#FEEEB7"/>
</g>
<defs>
<filter id="filter0_d_14001_2" x="0.0994158" y="0.918437" width="69.2377" height="69.2377" filterUnits="userSpaceOnUse" color-interpolation-filters="sRGB">
<feFlood flood-opacity="0" result="BackgroundImageFix"/>
<feColorMatrix in="SourceAlpha" type="matrix" values="0 0 0 0 0 0 0 0 0 0 0 0 0 0 0 0 0 0 127 0" result="hardAlpha"/>
<feOffset dy="3.35021"/>
<feGaussianBlur stdDeviation="5.58368"/>
<feComposite in2="hardAlpha" operator="out"/>
<feColorMatrix type="matrix" values="0 0 0 0 0.168627 0 0 0 0 0.172549 0 0 0 0 0.203922 0 0 0 0.2 0"/>
<feBlend mode="normal" in2="BackgroundImageFix" result="effect1_dropShadow_14001_2"/>
<feBlend mode="normal" in="SourceGraphic" in2="effect1_dropShadow_14001_2" result="shape"/>
</filter>
<clipPath id="clip0_14001_2">
<rect width="25.5676" height="22.7885" fill="white" transform="translate(23.5842 27.1635) rotate(-18.0359)"/>
</clipPath>
</defs>
</svg>
