<svg width="102" height="102" viewBox="0 0 102 102" fill="none" xmlns="http://www.w3.org/2000/svg">
<g opacity="0.7" filter="url(#filter0_d_14001_6)">
<circle cx="51.1665" cy="45.8636" r="34.1835" transform="rotate(-17.8082 51.1665 45.8636)" fill="#470137"/>
</g>
<path d="M89.5456 35.5457C95.3194 53.5201 85.4288 72.7719 67.4544 78.5457C49.4799 84.3195 30.2282 74.4289 24.4544 56.4544C18.6806 38.48 28.5712 19.2282 46.5456 13.4544C64.5201 7.68065 83.7718 17.5712 89.5456 35.5457Z" fill="#470137"/>
<path d="M54.2418 35.6069L51.9959 46.8526L61.501 54.471C61.5652 54.532 61.6109 54.5997 61.6192 54.681C61.6276 54.7622 61.5329 54.7334 61.4278 54.7925L57.1624 56.3386C56.8643 56.4467 56.6527 56.5023 56.4548 56.3633C55.7801 55.7228 55.0935 55.1076 54.4187 54.4671C53.7508 53.8452 53.0388 53.2182 52.3014 52.5792C51.5641 51.9403 50.8267 51.3014 50.0826 50.6439L50.0453 50.6574C49.9445 51.6001 49.8064 52.5564 49.6683 53.5126C49.5302 54.4688 49.3922 55.4251 49.2659 56.3559C49.1211 57.2935 48.983 58.2497 48.8314 59.1687C48.8244 59.382 48.6822 59.4546 48.4773 59.5289L44.3794 61.0143C44.3049 61.0413 44.2625 61.0988 44.2288 61.0056C44.1832 60.9379 44.1748 60.8566 44.1918 60.7873L46.5413 49.1879L37.4338 41.6783C37.351 41.624 37.3053 41.5563 37.3291 41.5055C37.3461 41.4361 37.4138 41.3905 37.4883 41.3635L41.7166 39.8309C41.8097 39.7971 41.9096 39.782 41.9908 39.7736C42.0789 39.7838 42.155 39.8195 42.2379 39.8737C42.8821 40.5464 43.5822 41.1988 44.3009 41.8444C45.0383 42.4833 45.7503 43.1104 46.4995 43.7239C47.2301 44.3442 47.9235 44.9779 48.6049 45.6371L48.6422 45.6236C48.7363 44.6622 48.8557 43.7128 48.982 42.7819C49.1082 41.8511 49.253 40.9135 49.3979 39.9759C49.5427 39.0383 49.6622 38.0888 49.7951 37.1766C49.7867 37.0953 49.797 37.0073 49.8394 36.9498C49.9004 36.8855 49.9681 36.8399 50.068 36.8248L53.9982 35.4002C54.0846 35.3478 54.198 35.3699 54.2504 35.4563C54.2757 35.4682 54.2655 35.5562 54.2418 35.6069Z" fill="#FF61F6"/>
<path d="M69.9702 52.1387C68.5986 52.657 67.119 52.8772 65.6617 52.7521C64.2924 52.6373 62.9998 52.0943 61.9309 51.2384C60.8298 50.352 59.9814 49.0579 59.367 47.3629C58.8488 45.9913 58.7098 44.5033 58.9669 43.0614C59.2358 41.5941 59.8957 40.2169 60.882 39.1007C61.9225 37.9017 63.3589 36.9807 65.2029 36.3122C65.296 36.2785 65.4264 36.2312 65.6008 36.1891C65.7752 36.1469 65.9615 36.0794 66.1918 36.017L64.0582 30.131C64.011 30.0007 64.0398 29.9059 64.1702 29.8586L67.9514 28.488C68.0378 28.4357 68.1393 28.4832 68.1849 28.5509C68.1917 28.5695 68.1984 28.5882 68.1984 28.5882L74.626 46.3207C74.7475 46.6559 74.9012 47.0217 75.0684 47.4247C75.2474 47.8024 75.4011 48.1682 75.5345 48.4781C75.5817 48.6085 75.5664 48.7405 75.4562 48.8436C74.6362 49.6045 73.7198 50.2739 72.7442 50.8382C71.855 51.3502 70.9388 51.7877 69.9702 52.1387ZM70.4453 47.7518L67.4746 39.5561C67.2934 39.5796 67.1123 39.6031 66.9379 39.6452C66.7262 39.7009 66.5146 39.7565 66.3097 39.8308C65.5833 40.0941 64.9109 40.5064 64.3805 41.078C63.8619 41.6242 63.4905 42.2857 63.2968 43.0303C63.1031 43.7749 63.1885 44.6501 63.5396 45.6186C63.7573 46.2773 64.1053 46.8888 64.5517 47.4224C64.9202 47.8578 65.3617 48.2036 65.8692 48.4411C66.3447 48.6481 66.8676 48.7535 67.4059 48.727C67.9696 48.7124 68.5181 48.5978 69.0397 48.4088C69.3191 48.3075 69.5731 48.1944 69.8085 48.088C70.0574 48.0188 70.2488 47.9073 70.4453 47.7518Z" fill="#FF61F6"/>
<defs>
<filter id="filter0_d_14001_6" x="0.695927" y="0.276397" width="100.941" height="100.941" filterUnits="userSpaceOnUse" color-interpolation-filters="sRGB">
<feFlood flood-opacity="0" result="BackgroundImageFix"/>
<feColorMatrix in="SourceAlpha" type="matrix" values="0 0 0 0 0 0 0 0 0 0 0 0 0 0 0 0 0 0 127 0" result="hardAlpha"/>
<feOffset dy="4.88336"/>
<feGaussianBlur stdDeviation="8.13893"/>
<feComposite in2="hardAlpha" operator="out"/>
<feColorMatrix type="matrix" values="0 0 0 0 0.168627 0 0 0 0 0.172549 0 0 0 0 0.203922 0 0 0 0.2 0"/>
<feBlend mode="normal" in2="BackgroundImageFix" result="effect1_dropShadow_14001_6"/>
<feBlend mode="normal" in="SourceGraphic" in2="effect1_dropShadow_14001_6" result="shape"/>
</filter>
</defs>
</svg>
